# xmcd
#
# Track frame offsets:
#	150
#	16023
#	32253
#	37245
#	58981
#	80677
#	88258
#	104956
#	115138
#	134018
#	155214
#	198698
#	217335
#
# Disc length: 3116 seconds
#
# Revision: 1
# Processed by: cddbd v1.5.2PL0 Copyright (c) Steve Scherf et al.
# Submitted via: audiograbber 1.83.01
#
DISCID=cd0c2a0d
DTITLE=Wilson Gil and The Willful Sinners - Wilson Gil and The Willful Sinners
DYEAR=1995
DGENRE=Alternative Country
TTITLE0=Hey Greg
TTITLE1=Get Through The Fall
TTITLE2=After The Fall
TTITLE3=18 Miles to Seattle
TTITLE4=Stripped
TTITLE5=Juice Jam
TTITLE6=Gunstore Liquorstore Project
TTITLE7=Lying Whoring Cheating Stealing
TTITLE8=Salty Water
TTITLE9=Ashamed
TTITLE10=Hell Yes I Lied (So What If I Did)
TTITLE11=Hell Yes (reprise)
TTITLE12=Bonus Track
EXTD=
EXTT0=
EXTT1=
EXTT2=
EXTT3=
EXTT4=
EXTT5=
EXTT6=
EXTT7=
EXTT8=
EXTT9=
EXTT10=
EXTT11=
EXTT12=
PLAYORDER=
